<svg xmlns="http://www.w3.org/2000/svg" x="0px" y="0px"
width="30" height="30"
viewBox="0 0 172 172"
style=" fill:#000000;"><g fill="none" fill-rule="nonzero" stroke="none" stroke-width="1" stroke-linecap="butt" stroke-linejoin="miter" stroke-miterlimit="10" stroke-dasharray="" stroke-dashoffset="0" font-family="none" font-weight="none" font-size="none" text-anchor="none" style="mix-blend-mode: normal"><path d="M0,172v-172h172v172z" fill="none"></path><g fill="#747474"><path d="M34.4,22.93333c-6.33533,0 -11.46667,5.13133 -11.46667,11.46667v103.2c0,6.33533 5.13133,11.46667 11.46667,11.46667h103.2c6.33533,0 11.46667,-5.13133 11.46667,-11.46667v-103.2c0,-6.33533 -5.13133,-11.46667 -11.46667,-11.46667zM112.71823,53.02214c3.56613,0 6.00208,2.27327 6.00208,5.375c0,3.10173 -2.43595,5.375 -6.00208,5.375c-3.526,0 -5.99089,-2.27327 -5.99089,-5.375c0,-3.10173 2.46489,-5.375 5.99089,-5.375zM67.61302,57.06458h11.36589l20.10026,56.56067h-10.85078l-4.78151,-14.45651h-20.80573l-4.87109,14.45651h-10.2237zM72.74167,67.83698l-7.74896,23.32526h16.1026l-7.68177,-23.32526zM107.90312,70.74844h9.675v42.87682h-9.675z"></path></g></g></svg>