<svg xmlns="http://www.w3.org/2000/svg" x="0px" y="0px"
width="26" height="26"
viewBox="0 0 172 172"
style=" fill:#000000;"><g fill="none" fill-rule="nonzero" stroke="none" stroke-width="1" stroke-linecap="butt" stroke-linejoin="miter" stroke-miterlimit="10" stroke-dasharray="" stroke-dashoffset="0" font-family="none" font-weight="none" font-size="none" text-anchor="none" style="mix-blend-mode: normal"><path d="M0,172v-172h172v172z" fill="none"></path><g fill="#747474"><path d="M102.35757,77.73077c0.67188,0.20673 1.26623,0.54267 1.8089,0.98197v24.47175c-0.51683,1.60217 -1.26622,2.84255 -2.2482,3.66947c-0.95613,0.82692 -2.32572,1.24038 -4.00541,1.24038c-2.14483,0 -3.69531,-1.11118 -4.70312,-3.38522c-1.11118,-2.45493 -1.67969,-6.09856 -1.67969,-10.82753c0,-6.30529 0.69771,-10.75 2.01562,-13.15324c1.26622,-2.27404 3.10096,-3.38522 5.63342,-3.38522c1.29206,0 2.3774,0.15505 3.17848,0.38762zM172,32.25v107.5c0,17.80469 -14.44531,32.25 -32.25,32.25h-107.5c-17.80469,0 -32.25,-14.44531 -32.25,-32.25v-107.5c0,-17.80469 14.44531,-32.25 32.25,-32.25h107.5c17.80469,0 32.25,14.44531 32.25,32.25zM69.95253,44.98978c0,-0.46514 -0.38762,-0.82692 -0.82692,-0.82692h-13.33413c-0.46515,0 -0.82692,0.36178 -0.82692,0.82692v74.08714c0,0.46515 0.36178,0.82692 0.82692,0.82692h13.33413c0.4393,0 0.82692,-0.36178 0.82692,-0.82692zM119.41286,119.18029c0,-0.12921 -0.02584,-0.25841 -0.07752,-0.36178c-0.46515,-3.46274 -0.7494,-6.66707 -0.82692,-9.50962c-0.05169,-2.94592 -0.10337,-5.91767 -0.10337,-8.86358v-55.45553c0,-0.46514 -0.36178,-0.82692 -0.82692,-0.82692h-12.58474c-0.4393,0 -0.82692,0.36178 -0.82692,0.82692v20.13041c-0.7494,-0.25841 -1.52464,-0.46514 -2.29988,-0.62019c-1.18871,-0.23257 -2.60998,-0.33594 -4.39303,-0.33594c-6.82212,0 -12.04206,2.55829 -15.50481,7.59735c-3.38522,4.96154 -5.11658,12.2488 -5.11658,21.70673c0,9.66467 1.60216,16.74519 4.78065,21.11238c3.20433,4.44471 7.70072,6.6929 13.30829,6.6929c5.76262,0 10.0006,-2.19651 12.61058,-6.5637l1.29206,4.67728c0.10337,0.36178 0.4393,0.62019 0.80108,0.62019h8.88942c0.02584,0 0.02584,0 0.05168,0c0.43931,0 0.82692,-0.36178 0.82692,-0.82692z"></path></g></g></svg>