<svg xmlns="http://www.w3.org/2000/svg" x="0px" y="0px"
width="30" height="30"
viewBox="0 0 172 172"
style=" fill:#000000;"><g fill="none" fill-rule="nonzero" stroke="none" stroke-width="1" stroke-linecap="butt" stroke-linejoin="miter" stroke-miterlimit="10" stroke-dasharray="" stroke-dashoffset="0" font-family="none" font-weight="none" font-size="none" text-anchor="none" style="mix-blend-mode: normal"><path d="M0,172v-172h172v172z" fill="none"></path><g fill="#747474"><path d="M34.4,22.93333c-6.33533,0 -11.46667,5.13133 -11.46667,11.46667v103.2c0,6.33533 5.13133,11.46667 11.46667,11.46667h103.2c6.33533,0 11.46667,-5.13133 11.46667,-11.46667v-103.2c0,-6.33533 -5.13133,-11.46667 -11.46667,-11.46667zM45.86667,57.28854h22.81016c11.28893,0 19.01406,7.72244 19.01406,19.12604c0,11.20867 -8.00705,18.89089 -19.45078,18.89089h-12.26172v18.54375h-10.11172zM55.97839,65.75417v21.16406h9.99974c7.21254,0 11.44427,-3.76124 11.44427,-10.50364c0,-6.9316 -4.12361,-10.66042 -11.41067,-10.66042zM110.12031,70.09896c10.18813,0 16.58438,4.50918 17.28958,12.30651h-9.1263c-0.7052,-3.01573 -3.57195,-4.93828 -8.11849,-4.93828c-4.42613,0 -7.76016,2.12223 -7.76016,5.21823c0,2.43093 2.03775,3.91883 6.34922,4.89349l7.55859,1.72448c8.19293,1.8404 11.99297,5.37276 11.99297,11.67942c0,8.2388 -7.5654,13.72865 -18.2638,13.72864c-10.6984,0 -17.44008,-4.63235 -18.18542,-12.42968h9.60782c0.94027,3.17627 3.95089,5.06146 8.81276,5.06146c4.89627,0 8.30886,-2.15394 8.30886,-5.33021c0,-2.43093 -1.8361,-3.96523 -5.9125,-4.8711l-7.60339,-1.75807c-8.23307,-1.88053 -12.10495,-5.68254 -12.10495,-12.14974c0,-7.76293 7.04161,-13.13516 17.15521,-13.13516z"></path></g></g></svg>